<svg xmlns="http://www.w3.org/2000/svg" xmlns:xlink="http://www.w3.org/1999/xlink" width="727" zoomAndPan="magnify" viewBox="0 0 545.25 275.999989" height="368" preserveAspectRatio="xMidYMid meet" version="1.0"><defs><g/><clipPath id="a7e50c41e6"><path d="M 431.386719 37.84375 L 507.03125 37.84375 L 507.03125 167.414062 L 431.386719 167.414062 Z M 431.386719 37.84375 " clip-rule="nonzero"/></clipPath></defs><g fill="#000000" fill-opacity="1"><g transform="translate(37.469516, 190.230272)"><g><path d="M 27.84375 -4.492188 C 27.84375 -7.003906 26.765625 -8.082031 24.25 -8.082031 L 16.167969 -8.082031 C 14.910156 -8.082031 14.371094 -8.621094 14.371094 -9.878906 L 14.371094 -29.1875 C 14.371094 -30.445312 14.910156 -30.984375 16.167969 -30.984375 L 20.65625 -30.984375 C 23.171875 -30.984375 24.25 -32.0625 24.25 -34.578125 L 24.25 -35.476562 C 24.25 -37.992188 23.171875 -39.070312 20.65625 -39.070312 L 16.167969 -39.070312 C 14.910156 -39.070312 14.371094 -39.609375 14.371094 -40.863281 L 14.371094 -52.988281 C 14.371094 -54.246094 14.910156 -54.785156 16.167969 -54.785156 L 24.25 -54.785156 C 26.765625 -54.785156 27.84375 -55.863281 27.84375 -58.378906 L 27.84375 -59.277344 C 27.84375 -61.792969 26.765625 -62.871094 24.25 -62.871094 L 8.980469 -62.871094 C 6.464844 -62.871094 5.390625 -61.792969 5.390625 -59.277344 L 5.390625 -3.59375 C 5.390625 -1.078125 6.464844 0 8.980469 0 L 24.25 0 C 26.765625 0 27.84375 -1.078125 27.84375 -3.59375 Z M 27.84375 -4.492188 "/></g></g></g><g fill="#000000" fill-opacity="1"><g transform="translate(67.10794, 190.230272)"><g><path d="M 24.25 0 C 26.765625 0 27.84375 -1.078125 27.84375 -3.59375 L 27.84375 -4.492188 C 27.84375 -7.003906 26.765625 -8.082031 24.25 -8.082031 L 16.167969 -8.082031 C 14.910156 -8.082031 14.371094 -8.621094 14.371094 -9.878906 L 14.371094 -59.277344 C 14.371094 -61.792969 13.292969 -62.871094 10.777344 -62.871094 L 8.980469 -62.871094 C 6.464844 -62.871094 5.390625 -61.792969 5.390625 -59.277344 L 5.390625 -3.59375 C 5.390625 -1.078125 6.464844 0 8.980469 0 Z M 24.25 0 "/></g></g></g><g fill="#000000" fill-opacity="1"><g transform="translate(96.746364, 190.230272)"><g><path d="M 27.84375 -4.492188 C 27.84375 -7.003906 26.765625 -8.082031 24.25 -8.082031 L 16.167969 -8.082031 C 14.910156 -8.082031 14.371094 -8.621094 14.371094 -9.878906 L 14.371094 -29.1875 C 14.371094 -30.445312 14.910156 -30.984375 16.167969 -30.984375 L 20.65625 -30.984375 C 23.171875 -30.984375 24.25 -32.0625 24.25 -34.578125 L 24.25 -35.476562 C 24.25 -37.992188 23.171875 -39.070312 20.65625 -39.070312 L 16.167969 -39.070312 C 14.910156 -39.070312 14.371094 -39.609375 14.371094 -40.863281 L 14.371094 -52.988281 C 14.371094 -54.246094 14.910156 -54.785156 16.167969 -54.785156 L 24.25 -54.785156 C 26.765625 -54.785156 27.84375 -55.863281 27.84375 -58.378906 L 27.84375 -59.277344 C 27.84375 -61.792969 26.765625 -62.871094 24.25 -62.871094 L 8.980469 -62.871094 C 6.464844 -62.871094 5.390625 -61.792969 5.390625 -59.277344 L 5.390625 -3.59375 C 5.390625 -1.078125 6.464844 0 8.980469 0 L 24.25 0 C 26.765625 0 27.84375 -1.078125 27.84375 -3.59375 Z M 27.84375 -4.492188 "/></g></g></g><g fill="#000000" fill-opacity="1"><g transform="translate(126.384788, 190.230272)"><g><path d="M 25.238281 -33.679688 C 24.878906 -34.847656 24.878906 -35.925781 25.238281 -37.09375 L 32.78125 -59.277344 C 33.589844 -61.613281 31.972656 -62.871094 30.085938 -62.871094 L 28.292969 -62.871094 C 25.6875 -62.871094 24.429688 -61.613281 23.710938 -59.457031 L 17.246094 -40.773438 C 16.886719 -39.789062 16.347656 -39.070312 15.539062 -39.070312 C 14.730469 -39.070312 14.371094 -39.789062 14.371094 -40.863281 L 14.371094 -59.277344 C 14.371094 -61.792969 13.292969 -62.871094 10.777344 -62.871094 L 8.980469 -62.871094 C 6.464844 -62.871094 5.390625 -61.792969 5.390625 -59.277344 L 5.390625 -3.59375 C 5.390625 -1.078125 6.464844 0 8.980469 0 L 10.777344 0 C 13.292969 0 14.371094 -1.078125 14.371094 -3.59375 L 14.371094 -29.1875 C 14.371094 -30.265625 14.730469 -30.984375 15.71875 -30.984375 C 16.707031 -30.984375 17.246094 -30.265625 17.601562 -29.277344 L 26.40625 -3.414062 C 27.125 -1.078125 28.472656 0 30.984375 0 L 32.78125 0 C 34.667969 0 36.285156 -1.257812 35.476562 -3.59375 Z M 25.238281 -33.679688 "/></g></g></g><g fill="#000000" fill-opacity="1"><g transform="translate(163.028666, 190.230272)"><g><path d="M 15.269531 0 C 17.78125 0 18.859375 -1.078125 18.859375 -3.59375 L 18.859375 -52.988281 C 18.859375 -54.246094 19.398438 -54.785156 20.65625 -54.785156 L 26.046875 -54.785156 C 27.304688 -54.785156 27.84375 -55.324219 27.84375 -56.582031 L 27.84375 -61.074219 C 27.84375 -62.332031 27.304688 -62.871094 26.046875 -62.871094 L 2.695312 -62.871094 C 1.4375 -62.871094 0.898438 -62.332031 0.898438 -61.074219 L 0.898438 -56.582031 C 0.898438 -55.324219 1.4375 -54.785156 2.695312 -54.785156 L 8.082031 -54.785156 C 9.339844 -54.785156 9.878906 -54.246094 9.878906 -52.988281 L 9.878906 -3.59375 C 9.878906 -1.078125 10.957031 0 13.472656 0 Z M 15.269531 0 "/></g></g></g><g fill="#000000" fill-opacity="1"><g transform="translate(191.76896, 190.230272)"><g><path d="M 23.351562 -35.476562 C 23.351562 -32.960938 22.273438 -31.882812 19.757812 -31.882812 L 16.167969 -31.882812 C 15 -31.882812 14.371094 -32.332031 14.371094 -33.320312 L 14.371094 -52.988281 C 14.371094 -54.246094 14.910156 -54.785156 16.167969 -54.785156 L 19.757812 -54.785156 C 22.273438 -54.785156 23.351562 -53.707031 23.351562 -51.195312 Z M 30.804688 0 C 32.691406 0 34.308594 -1.347656 33.5 -3.59375 L 25.957031 -24.25 C 30.355469 -25.417969 32.332031 -28.652344 32.332031 -34.578125 L 32.332031 -52.089844 C 32.332031 -59.636719 29.097656 -62.871094 21.554688 -62.871094 L 8.980469 -62.871094 C 6.464844 -62.871094 5.390625 -61.792969 5.390625 -59.277344 L 5.390625 -3.59375 C 5.390625 -1.078125 6.464844 0 8.980469 0 L 10.777344 0 C 13.292969 0 14.371094 -1.078125 14.371094 -3.59375 L 14.371094 -22.003906 C 14.371094 -22.992188 14.730469 -23.710938 15.449219 -23.710938 C 16.347656 -23.710938 16.886719 -22.992188 17.246094 -22.09375 L 24.160156 -3.414062 C 24.96875 -1.078125 26.316406 0 29.1875 0 Z M 30.804688 0 "/></g></g></g><g fill="#000000" fill-opacity="1"><g transform="translate(228.592464, 190.230272)"><g><path d="M 10.777344 0 C 13.292969 0 14.371094 -1.078125 14.371094 -3.59375 L 14.371094 -59.277344 C 14.371094 -61.792969 13.292969 -62.871094 10.777344 -62.871094 L 8.980469 -62.871094 C 6.464844 -62.871094 5.390625 -61.792969 5.390625 -59.277344 L 5.390625 -3.59375 C 5.390625 -1.078125 6.464844 0 8.980469 0 Z M 10.777344 0 "/></g></g></g><g fill="#000000" fill-opacity="1"><g transform="translate(248.351406, 190.230272)"><g><path d="M 23.351562 -35.476562 C 23.351562 -32.960938 22.273438 -31.882812 19.757812 -31.882812 L 16.167969 -31.882812 C 15 -31.882812 14.460938 -32.332031 14.371094 -33.320312 L 14.371094 -52.988281 C 14.371094 -54.246094 14.910156 -54.785156 16.167969 -54.785156 L 19.757812 -54.785156 C 22.273438 -54.785156 23.351562 -53.707031 23.351562 -51.195312 Z M 10.777344 0 C 13.292969 0 14.371094 -1.078125 14.371094 -3.59375 L 14.371094 -22.003906 C 14.371094 -23.261719 14.910156 -23.800781 16.167969 -23.800781 L 21.554688 -23.800781 C 29.097656 -23.800781 32.332031 -27.035156 32.332031 -34.578125 L 32.332031 -52.089844 C 32.332031 -59.636719 29.097656 -62.871094 21.554688 -62.871094 L 8.980469 -62.871094 C 6.464844 -62.871094 5.390625 -61.792969 5.390625 -59.277344 L 5.390625 -3.59375 C 5.390625 -1.078125 6.464844 0 8.980469 0 Z M 10.777344 0 "/></g></g></g><g fill="#000000" fill-opacity="1"><g transform="translate(283.378638, 190.230272)"><g><path d="M 21.554688 0 C 29.097656 0 32.332031 -3.234375 32.332031 -10.777344 L 32.332031 -59.277344 C 32.332031 -61.792969 31.253906 -62.871094 28.742188 -62.871094 L 26.945312 -62.871094 C 24.429688 -62.871094 23.351562 -61.792969 23.351562 -59.277344 L 23.351562 -11.675781 C 23.351562 -9.160156 22.273438 -8.082031 19.757812 -8.082031 L 17.960938 -8.082031 C 15.449219 -8.082031 14.371094 -9.160156 14.371094 -11.675781 L 14.371094 -59.277344 C 14.371094 -61.792969 13.292969 -62.871094 10.777344 -62.871094 L 8.980469 -62.871094 C 6.464844 -62.871094 5.390625 -61.792969 5.390625 -59.277344 L 5.390625 -10.777344 C 5.390625 -3.234375 8.621094 0 16.167969 0 Z M 21.554688 0 "/></g></g></g><g fill="#000000" fill-opacity="1"><g transform="translate(321.10026, 190.230272)"><g><path d="M 31.433594 0 C 33.949219 0 35.027344 -1.078125 35.027344 -3.59375 L 35.027344 -59.277344 C 35.027344 -61.792969 33.949219 -62.871094 31.433594 -62.871094 L 29.636719 -62.871094 C 27.125 -62.871094 26.046875 -61.792969 26.046875 -59.277344 L 26.046875 -50.296875 C 26.046875 -42.75 26.226562 -36.285156 26.675781 -28.742188 L 26.945312 -24.699219 C 26.945312 -23.441406 26.855469 -23.441406 26.496094 -24.609375 L 15.269531 -59.367188 C 14.640625 -61.792969 13.292969 -62.871094 10.777344 -62.871094 L 8.980469 -62.871094 C 6.464844 -62.871094 5.390625 -61.792969 5.390625 -59.277344 L 5.390625 -3.59375 C 5.390625 -1.078125 6.464844 0 8.980469 0 L 10.777344 0 C 13.292969 0 14.371094 -1.078125 14.371094 -3.59375 L 14.371094 -12.574219 C 14.371094 -20.117188 14.191406 -26.585938 13.742188 -34.128906 L 13.472656 -38.171875 C 13.472656 -39.429688 13.5625 -39.429688 13.921875 -38.261719 L 25.148438 -3.503906 C 25.777344 -1.078125 27.125 0 29.636719 0 Z M 31.433594 0 "/></g></g></g><g fill="#000000" fill-opacity="1"><g transform="translate(361.516298, 190.230272)"><g><path d="M 25.238281 -33.679688 C 24.878906 -34.847656 24.878906 -35.925781 25.238281 -37.09375 L 32.78125 -59.277344 C 33.589844 -61.613281 31.972656 -62.871094 30.085938 -62.871094 L 28.292969 -62.871094 C 25.6875 -62.871094 24.429688 -61.613281 23.710938 -59.457031 L 17.246094 -40.773438 C 16.886719 -39.789062 16.347656 -39.070312 15.539062 -39.070312 C 14.730469 -39.070312 14.371094 -39.789062 14.371094 -40.863281 L 14.371094 -59.277344 C 14.371094 -61.792969 13.292969 -62.871094 10.777344 -62.871094 L 8.980469 -62.871094 C 6.464844 -62.871094 5.390625 -61.792969 5.390625 -59.277344 L 5.390625 -3.59375 C 5.390625 -1.078125 6.464844 0 8.980469 0 L 10.777344 0 C 13.292969 0 14.371094 -1.078125 14.371094 -3.59375 L 14.371094 -29.1875 C 14.371094 -30.265625 14.730469 -30.984375 15.71875 -30.984375 C 16.707031 -30.984375 17.246094 -30.265625 17.601562 -29.277344 L 26.40625 -3.414062 C 27.125 -1.078125 28.472656 0 30.984375 0 L 32.78125 0 C 34.667969 0 36.285156 -1.257812 35.476562 -3.59375 Z M 25.238281 -33.679688 "/></g></g></g><g fill="#000000" fill-opacity="1"><g transform="translate(398.160188, 190.230272)"><g><path d="M 15.269531 0 C 17.78125 0 18.859375 -1.078125 18.859375 -3.59375 L 18.859375 -52.988281 C 18.859375 -54.246094 19.398438 -54.785156 20.65625 -54.785156 L 26.046875 -54.785156 C 27.304688 -54.785156 27.84375 -55.324219 27.84375 -56.582031 L 27.84375 -61.074219 C 27.84375 -62.332031 27.304688 -62.871094 26.046875 -62.871094 L 2.695312 -62.871094 C 1.4375 -62.871094 0.898438 -62.332031 0.898438 -61.074219 L 0.898438 -56.582031 C 0.898438 -55.324219 1.4375 -54.785156 2.695312 -54.785156 L 8.082031 -54.785156 C 9.339844 -54.785156 9.878906 -54.246094 9.878906 -52.988281 L 9.878906 -3.59375 C 9.878906 -1.078125 10.957031 0 13.472656 0 Z M 15.269531 0 "/></g></g></g><g fill="#000000" fill-opacity="1"><g transform="translate(426.900482, 190.230272)"><g><path d="M 17.066406 -7.183594 C 17.066406 -9.699219 15.988281 -10.777344 13.472656 -10.777344 L 8.980469 -10.777344 C 6.464844 -10.777344 5.390625 -9.699219 5.390625 -7.183594 L 5.390625 -3.59375 C 5.390625 -1.078125 6.464844 0 8.980469 0 L 13.472656 0 C 15.988281 0 17.066406 -1.078125 17.066406 -3.59375 Z M 17.066406 -7.183594 "/></g></g></g><g clip-path="url(#a7e50c41e6)"><path fill="#fbc646" d="M 453.800781 37.84375 L 502.363281 37.84375 L 481.8125 75.878906 L 507.03125 75.878906 L 446.015625 167.410156 L 462.203125 99.996094 L 431.386719 99.996094 L 453.800781 37.84375 " fill-opacity="1" fill-rule="nonzero"/></g><g fill="#000000" fill-opacity="1"><g transform="translate(85.971582, 230.770967)"><g><path d="M 2.484375 0 L 2.484375 -20.515625 L 9.65625 -20.515625 C 11.082031 -20.515625 12.257812 -20.265625 13.1875 -19.765625 C 14.113281 -19.273438 14.800781 -18.617188 15.25 -17.796875 C 15.707031 -16.972656 15.9375 -16.0625 15.9375 -15.0625 C 15.9375 -14.175781 15.78125 -13.445312 15.46875 -12.875 C 15.164062 -12.300781 14.757812 -11.847656 14.25 -11.515625 C 13.75 -11.179688 13.207031 -10.9375 12.625 -10.78125 L 12.625 -10.578125 C 13.25 -10.535156 13.878906 -10.3125 14.515625 -9.90625 C 15.148438 -9.507812 15.679688 -8.9375 16.109375 -8.1875 C 16.535156 -7.445312 16.75 -6.535156 16.75 -5.453125 C 16.75 -4.421875 16.515625 -3.492188 16.046875 -2.671875 C 15.578125 -1.847656 14.835938 -1.195312 13.828125 -0.71875 C 12.816406 -0.238281 11.503906 0 9.890625 0 Z M 4.96875 -2.203125 L 9.890625 -2.203125 C 11.515625 -2.203125 12.664062 -2.515625 13.34375 -3.140625 C 14.03125 -3.773438 14.375 -4.546875 14.375 -5.453125 C 14.375 -6.140625 14.195312 -6.78125 13.84375 -7.375 C 13.488281 -7.96875 12.984375 -8.441406 12.328125 -8.796875 C 11.679688 -9.148438 10.910156 -9.328125 10.015625 -9.328125 L 4.96875 -9.328125 Z M 4.96875 -11.5 L 9.578125 -11.5 C 10.691406 -11.5 11.632812 -11.820312 12.40625 -12.46875 C 13.1875 -13.113281 13.578125 -13.976562 13.578125 -15.0625 C 13.578125 -15.96875 13.265625 -16.734375 12.640625 -17.359375 C 12.015625 -17.992188 11.019531 -18.3125 9.65625 -18.3125 L 4.96875 -18.3125 Z M 4.96875 -11.5 "/></g></g></g><g fill="#000000" fill-opacity="1"><g transform="translate(104.315138, 230.770967)"><g><path d="M 15.9375 -20.515625 L 18.421875 -20.515625 L 18.421875 -6.9375 C 18.421875 -5.394531 18.054688 -4.078125 17.328125 -2.984375 C 16.609375 -1.898438 15.644531 -1.070312 14.4375 -0.5 C 13.226562 0.0703125 11.898438 0.359375 10.453125 0.359375 C 9.015625 0.359375 7.691406 0.0703125 6.484375 -0.5 C 5.273438 -1.070312 4.304688 -1.898438 3.578125 -2.984375 C 2.847656 -4.078125 2.484375 -5.394531 2.484375 -6.9375 L 2.484375 -20.515625 L 4.96875 -20.515625 L 4.96875 -6.9375 C 4.96875 -5.863281 5.21875 -4.957031 5.71875 -4.21875 C 6.226562 -3.476562 6.898438 -2.914062 7.734375 -2.53125 C 8.578125 -2.15625 9.484375 -1.96875 10.453125 -1.96875 C 11.429688 -1.96875 12.335938 -2.15625 13.171875 -2.53125 C 14.003906 -2.914062 14.671875 -3.476562 15.171875 -4.21875 C 15.679688 -4.957031 15.9375 -5.863281 15.9375 -6.9375 Z M 15.9375 -20.515625 "/></g></g></g><g fill="#000000" fill-opacity="1"><g transform="translate(125.221986, 230.770967)"><g><path d="M 4.96875 -20.515625 L 4.96875 0 L 2.484375 0 L 2.484375 -20.515625 Z M 4.96875 -20.515625 "/></g></g></g><g fill="#000000" fill-opacity="1"><g transform="translate(132.671554, 230.770967)"><g><path d="M 2.484375 0 L 2.484375 -20.515625 L 4.96875 -20.515625 L 4.96875 -2.203125 L 14.5 -2.203125 L 14.5 0 Z M 2.484375 0 "/></g></g></g><g fill="#000000" fill-opacity="1"><g transform="translate(148.531918, 230.770967)"><g><path d="M 8.8125 0 L 2.484375 0 L 2.484375 -20.515625 L 9.09375 -20.515625 C 11.082031 -20.515625 12.785156 -20.101562 14.203125 -19.28125 C 15.617188 -18.46875 16.703125 -17.296875 17.453125 -15.765625 C 18.210938 -14.242188 18.59375 -12.421875 18.59375 -10.296875 C 18.59375 -8.160156 18.210938 -6.320312 17.453125 -4.78125 C 16.691406 -3.238281 15.582031 -2.054688 14.125 -1.234375 C 12.664062 -0.410156 10.894531 0 8.8125 0 Z M 4.96875 -2.203125 L 8.65625 -2.203125 C 11.195312 -2.203125 13.085938 -2.925781 14.328125 -4.375 C 15.566406 -5.820312 16.1875 -7.796875 16.1875 -10.296875 C 16.1875 -12.773438 15.578125 -14.726562 14.359375 -16.15625 C 13.148438 -17.59375 11.34375 -18.3125 8.9375 -18.3125 L 4.96875 -18.3125 Z M 4.96875 -2.203125 "/></g></g></g><g fill="#000000" fill-opacity="1"><g transform="translate(168.792279, 230.770967)"><g/></g></g><g fill="#000000" fill-opacity="1"><g transform="translate(176.722464, 230.770967)"><g/></g></g><g fill="#000000" fill-opacity="1"><g transform="translate(184.649412, 230.770967)"><g><path d="M 15.9375 -20.515625 L 18.421875 -20.515625 L 18.421875 -6.9375 C 18.421875 -5.394531 18.054688 -4.078125 17.328125 -2.984375 C 16.609375 -1.898438 15.644531 -1.070312 14.4375 -0.5 C 13.226562 0.0703125 11.898438 0.359375 10.453125 0.359375 C 9.015625 0.359375 7.691406 0.0703125 6.484375 -0.5 C 5.273438 -1.070312 4.304688 -1.898438 3.578125 -2.984375 C 2.847656 -4.078125 2.484375 -5.394531 2.484375 -6.9375 L 2.484375 -20.515625 L 4.96875 -20.515625 L 4.96875 -6.9375 C 4.96875 -5.863281 5.21875 -4.957031 5.71875 -4.21875 C 6.226562 -3.476562 6.898438 -2.914062 7.734375 -2.53125 C 8.578125 -2.15625 9.484375 -1.96875 10.453125 -1.96875 C 11.429688 -1.96875 12.335938 -2.15625 13.171875 -2.53125 C 14.003906 -2.914062 14.671875 -3.476562 15.171875 -4.21875 C 15.679688 -4.957031 15.9375 -5.863281 15.9375 -6.9375 Z M 15.9375 -20.515625 "/></g></g></g><g fill="#000000" fill-opacity="1"><g transform="translate(205.556259, 230.770967)"><g><path d="M 2.484375 0 L 2.484375 -20.515625 L 9.421875 -20.515625 C 11.023438 -20.515625 12.335938 -20.222656 13.359375 -19.640625 C 14.390625 -19.066406 15.148438 -18.285156 15.640625 -17.296875 C 16.140625 -16.316406 16.390625 -15.222656 16.390625 -14.015625 C 16.390625 -12.804688 16.140625 -11.707031 15.640625 -10.71875 C 15.148438 -9.738281 14.394531 -8.953125 13.375 -8.359375 C 12.351562 -7.773438 11.046875 -7.484375 9.453125 -7.484375 L 4.96875 -7.484375 L 4.96875 0 Z M 4.96875 -9.6875 L 9.375 -9.6875 C 11.019531 -9.6875 12.191406 -10.097656 12.890625 -10.921875 C 13.585938 -11.753906 13.9375 -12.785156 13.9375 -14.015625 C 13.9375 -15.253906 13.585938 -16.28125 12.890625 -17.09375 C 12.191406 -17.90625 11.003906 -18.3125 9.328125 -18.3125 L 4.96875 -18.3125 Z M 4.96875 -9.6875 "/></g></g></g><g fill="#000000" fill-opacity="1"><g transform="translate(223.459243, 230.770967)"><g><path d="M 16.5 -14.09375 C 16.070312 -15.445312 15.359375 -16.515625 14.359375 -17.296875 C 13.367188 -18.078125 12.132812 -18.46875 10.65625 -18.46875 C 9.4375 -18.46875 8.328125 -18.148438 7.328125 -17.515625 C 6.335938 -16.890625 5.550781 -15.96875 4.96875 -14.75 C 4.382812 -13.53125 4.09375 -12.03125 4.09375 -10.25 C 4.09375 -8.476562 4.390625 -6.976562 4.984375 -5.75 C 5.578125 -4.53125 6.378906 -3.609375 7.390625 -2.984375 C 8.398438 -2.359375 9.539062 -2.046875 10.8125 -2.046875 C 11.96875 -2.046875 12.988281 -2.289062 13.875 -2.78125 C 14.769531 -3.269531 15.472656 -3.960938 15.984375 -4.859375 C 16.492188 -5.753906 16.757812 -6.816406 16.78125 -8.046875 L 11.375 -8.046875 L 11.375 -10.25 L 19.1875 -10.25 L 19.1875 -8.046875 C 19.1875 -6.359375 18.828125 -4.890625 18.109375 -3.640625 C 17.390625 -2.390625 16.398438 -1.421875 15.140625 -0.734375 C 13.890625 -0.0546875 12.445312 0.28125 10.8125 0.28125 C 9 0.28125 7.40625 -0.144531 6.03125 -1 C 4.65625 -1.851562 3.585938 -3.066406 2.828125 -4.640625 C 2.066406 -6.222656 1.6875 -8.09375 1.6875 -10.25 C 1.6875 -12.414062 2.066406 -14.285156 2.828125 -15.859375 C 3.585938 -17.441406 4.644531 -18.660156 6 -19.515625 C 7.351562 -20.367188 8.90625 -20.796875 10.65625 -20.796875 C 12.09375 -20.796875 13.398438 -20.507812 14.578125 -19.9375 C 15.753906 -19.375 16.734375 -18.585938 17.515625 -17.578125 C 18.296875 -16.578125 18.8125 -15.414062 19.0625 -14.09375 Z M 16.5 -14.09375 "/></g></g></g><g fill="#000000" fill-opacity="1"><g transform="translate(244.406135, 230.770967)"><g><path d="M 2.484375 0 L 2.484375 -20.515625 L 9.421875 -20.515625 C 11.015625 -20.515625 12.328125 -20.238281 13.359375 -19.6875 C 14.390625 -19.144531 15.148438 -18.398438 15.640625 -17.453125 C 16.140625 -16.503906 16.390625 -15.425781 16.390625 -14.21875 C 16.390625 -12.851562 16.078125 -11.664062 15.453125 -10.65625 C 14.828125 -9.644531 13.859375 -8.914062 12.546875 -8.46875 L 17.1875 0 L 14.296875 0 L 9.96875 -8.015625 C 9.800781 -8.015625 9.628906 -8.015625 9.453125 -8.015625 L 4.96875 -8.015625 L 4.96875 0 Z M 4.96875 -10.25 L 9.375 -10.25 C 11.019531 -10.25 12.191406 -10.601562 12.890625 -11.3125 C 13.585938 -12.019531 13.9375 -12.988281 13.9375 -14.21875 C 13.9375 -15.457031 13.582031 -16.445312 12.875 -17.1875 C 12.175781 -17.9375 10.992188 -18.3125 9.328125 -18.3125 L 4.96875 -18.3125 Z M 4.96875 -10.25 "/></g></g></g><g fill="#000000" fill-opacity="1"><g transform="translate(262.42928, 230.770967)"><g><path d="M 3.328125 0 L 0.71875 0 L 8.25 -20.515625 L 10.8125 -20.515625 L 18.34375 0 L 15.75 0 L 13.6875 -5.8125 L 5.390625 -5.8125 Z M 6.171875 -8.015625 L 12.90625 -8.015625 L 9.609375 -17.265625 L 9.453125 -17.265625 Z M 6.171875 -8.015625 "/></g></g></g><g fill="#000000" fill-opacity="1"><g transform="translate(281.493757, 230.770967)"><g><path d="M 8.8125 0 L 2.484375 0 L 2.484375 -20.515625 L 9.09375 -20.515625 C 11.082031 -20.515625 12.785156 -20.101562 14.203125 -19.28125 C 15.617188 -18.46875 16.703125 -17.296875 17.453125 -15.765625 C 18.210938 -14.242188 18.59375 -12.421875 18.59375 -10.296875 C 18.59375 -8.160156 18.210938 -6.320312 17.453125 -4.78125 C 16.691406 -3.238281 15.582031 -2.054688 14.125 -1.234375 C 12.664062 -0.410156 10.894531 0 8.8125 0 Z M 4.96875 -2.203125 L 8.65625 -2.203125 C 11.195312 -2.203125 13.085938 -2.925781 14.328125 -4.375 C 15.566406 -5.820312 16.1875 -7.796875 16.1875 -10.296875 C 16.1875 -12.773438 15.578125 -14.726562 14.359375 -16.15625 C 13.148438 -17.59375 11.34375 -18.3125 8.9375 -18.3125 L 4.96875 -18.3125 Z M 4.96875 -2.203125 "/></g></g></g><g fill="#000000" fill-opacity="1"><g transform="translate(301.759781, 230.770967)"><g><path d="M 2.484375 0 L 2.484375 -20.515625 L 14.859375 -20.515625 L 14.859375 -18.3125 L 4.96875 -18.3125 L 4.96875 -11.375 L 14.21875 -11.375 L 14.21875 -9.171875 L 4.96875 -9.171875 L 4.96875 -2.203125 L 15.015625 -2.203125 L 15.015625 0 Z M 2.484375 0 "/></g></g></g><g fill="#000000" fill-opacity="1"><g transform="translate(318.618624, 230.770967)"><g/></g></g><g fill="#000000" fill-opacity="1"><g transform="translate(326.54881, 230.770967)"><g/></g></g><g fill="#000000" fill-opacity="1"><g transform="translate(334.475757, 230.770967)"><g><path d="M 2.484375 0 L 2.484375 -20.515625 L 14.78125 -20.515625 L 14.78125 -18.3125 L 4.96875 -18.3125 L 4.96875 -11.375 L 13.859375 -11.375 L 13.859375 -9.171875 L 4.96875 -9.171875 L 4.96875 0 Z M 2.484375 0 "/></g></g></g><g fill="#000000" fill-opacity="1"><g transform="translate(351.016997, 230.770967)"><g><path d="M 4.96875 -20.515625 L 4.96875 0 L 2.484375 0 L 2.484375 -20.515625 Z M 4.96875 -20.515625 "/></g></g></g><g fill="#000000" fill-opacity="1"><g transform="translate(358.466566, 230.770967)"><g><path d="M 3.6875 -20.515625 L 8.96875 -11.984375 L 9.140625 -11.984375 L 14.421875 -20.515625 L 17.34375 -20.515625 L 10.890625 -10.25 L 17.34375 0 L 14.421875 0 L 9.140625 -8.375 L 8.96875 -8.375 L 3.6875 0 L 0.765625 0 L 7.375 -10.25 L 0.765625 -20.515625 Z M 3.6875 -20.515625 "/></g></g></g></svg>