<svg xmlns="http://www.w3.org/2000/svg" xmlns:xlink="http://www.w3.org/1999/xlink" width="727" zoomAndPan="magnify" viewBox="0 0 545.25 259.499997" height="346" preserveAspectRatio="xMidYMid meet" version="1.0"><defs><g/><clipPath id="e9bd58fb34"><path d="M 431.496094 37.976562 L 507.097656 37.976562 L 507.097656 167.476562 L 431.496094 167.476562 Z M 431.496094 37.976562 " clip-rule="nonzero"/></clipPath></defs><g fill="#000000" fill-opacity="1"><g transform="translate(37.796133, 190.279867)"><g><path d="M 27.828125 -4.488281 C 27.828125 -7 26.75 -8.078125 24.234375 -8.078125 L 16.15625 -8.078125 C 14.902344 -8.078125 14.363281 -8.617188 14.363281 -9.875 L 14.363281 -29.171875 C 14.363281 -30.429688 14.902344 -30.96875 16.15625 -30.96875 L 20.644531 -30.96875 C 23.160156 -30.96875 24.234375 -32.046875 24.234375 -34.558594 L 24.234375 -35.457031 C 24.234375 -37.96875 23.160156 -39.046875 20.644531 -39.046875 L 16.15625 -39.046875 C 14.902344 -39.046875 14.363281 -39.585938 14.363281 -40.84375 L 14.363281 -52.960938 C 14.363281 -54.21875 14.902344 -54.757812 16.15625 -54.757812 L 24.234375 -54.757812 C 26.75 -54.757812 27.828125 -55.832031 27.828125 -58.347656 L 27.828125 -59.246094 C 27.828125 -61.757812 26.75 -62.835938 24.234375 -62.835938 L 8.976562 -62.835938 C 6.464844 -62.835938 5.386719 -61.757812 5.386719 -59.246094 L 5.386719 -3.589844 C 5.386719 -1.078125 6.464844 0 8.976562 0 L 24.234375 0 C 26.75 0 27.828125 -1.078125 27.828125 -3.589844 Z M 27.828125 -4.488281 "/></g></g></g><g fill="#000000" fill-opacity="1"><g transform="translate(67.41825, 190.279867)"><g><path d="M 24.234375 0 C 26.75 0 27.828125 -1.078125 27.828125 -3.589844 L 27.828125 -4.488281 C 27.828125 -7 26.75 -8.078125 24.234375 -8.078125 L 16.15625 -8.078125 C 14.902344 -8.078125 14.363281 -8.617188 14.363281 -9.875 L 14.363281 -59.246094 C 14.363281 -61.757812 13.285156 -62.835938 10.773438 -62.835938 L 8.976562 -62.835938 C 6.464844 -62.835938 5.386719 -61.757812 5.386719 -59.246094 L 5.386719 -3.589844 C 5.386719 -1.078125 6.464844 0 8.976562 0 Z M 24.234375 0 "/></g></g></g><g fill="#000000" fill-opacity="1"><g transform="translate(97.040367, 190.279867)"><g><path d="M 27.828125 -4.488281 C 27.828125 -7 26.75 -8.078125 24.234375 -8.078125 L 16.15625 -8.078125 C 14.902344 -8.078125 14.363281 -8.617188 14.363281 -9.875 L 14.363281 -29.171875 C 14.363281 -30.429688 14.902344 -30.96875 16.15625 -30.96875 L 20.644531 -30.96875 C 23.160156 -30.96875 24.234375 -32.046875 24.234375 -34.558594 L 24.234375 -35.457031 C 24.234375 -37.96875 23.160156 -39.046875 20.644531 -39.046875 L 16.15625 -39.046875 C 14.902344 -39.046875 14.363281 -39.585938 14.363281 -40.84375 L 14.363281 -52.960938 C 14.363281 -54.21875 14.902344 -54.757812 16.15625 -54.757812 L 24.234375 -54.757812 C 26.75 -54.757812 27.828125 -55.832031 27.828125 -58.347656 L 27.828125 -59.246094 C 27.828125 -61.757812 26.75 -62.835938 24.234375 -62.835938 L 8.976562 -62.835938 C 6.464844 -62.835938 5.386719 -61.757812 5.386719 -59.246094 L 5.386719 -3.589844 C 5.386719 -1.078125 6.464844 0 8.976562 0 L 24.234375 0 C 26.75 0 27.828125 -1.078125 27.828125 -3.589844 Z M 27.828125 -4.488281 "/></g></g></g><g fill="#000000" fill-opacity="1"><g transform="translate(126.662483, 190.279867)"><g><path d="M 25.222656 -33.660156 C 24.863281 -34.828125 24.863281 -35.90625 25.222656 -37.074219 L 32.765625 -59.246094 C 33.570312 -61.578125 31.957031 -62.835938 30.070312 -62.835938 L 28.277344 -62.835938 C 25.671875 -62.835938 24.414062 -61.578125 23.699219 -59.421875 L 17.234375 -40.753906 C 16.875 -39.765625 16.335938 -39.046875 15.527344 -39.046875 C 14.722656 -39.046875 14.363281 -39.765625 14.363281 -40.84375 L 14.363281 -59.246094 C 14.363281 -61.757812 13.285156 -62.835938 10.773438 -62.835938 L 8.976562 -62.835938 C 6.464844 -62.835938 5.386719 -61.757812 5.386719 -59.246094 L 5.386719 -3.589844 C 5.386719 -1.078125 6.464844 0 8.976562 0 L 10.773438 0 C 13.285156 0 14.363281 -1.078125 14.363281 -3.589844 L 14.363281 -29.171875 C 14.363281 -30.25 14.722656 -30.96875 15.707031 -30.96875 C 16.695312 -30.96875 17.234375 -30.25 17.59375 -29.261719 L 26.390625 -3.410156 C 27.109375 -1.078125 28.457031 0 30.96875 0 L 32.765625 0 C 34.648438 0 36.265625 -1.257812 35.457031 -3.589844 Z M 25.222656 -33.660156 "/></g></g></g><g fill="#000000" fill-opacity="1"><g transform="translate(163.286199, 190.279867)"><g><path d="M 15.261719 0 C 17.773438 0 18.851562 -1.078125 18.851562 -3.589844 L 18.851562 -52.960938 C 18.851562 -54.21875 19.390625 -54.757812 20.644531 -54.757812 L 26.03125 -54.757812 C 27.289062 -54.757812 27.828125 -55.292969 27.828125 -56.550781 L 27.828125 -61.039062 C 27.828125 -62.296875 27.289062 -62.835938 26.03125 -62.835938 L 2.691406 -62.835938 C 1.4375 -62.835938 0.898438 -62.296875 0.898438 -61.039062 L 0.898438 -56.550781 C 0.898438 -55.292969 1.4375 -54.757812 2.691406 -54.757812 L 8.078125 -54.757812 C 9.335938 -54.757812 9.875 -54.21875 9.875 -52.960938 L 9.875 -3.589844 C 9.875 -1.078125 10.953125 0 13.464844 0 Z M 15.261719 0 "/></g></g></g><g fill="#000000" fill-opacity="1"><g transform="translate(192.01068, 190.279867)"><g><path d="M 23.339844 -35.457031 C 23.339844 -32.945312 22.261719 -31.867188 19.75 -31.867188 L 16.15625 -31.867188 C 14.992188 -31.867188 14.363281 -32.316406 14.363281 -33.300781 L 14.363281 -52.960938 C 14.363281 -54.21875 14.902344 -54.757812 16.15625 -54.757812 L 19.75 -54.757812 C 22.261719 -54.757812 23.339844 -53.679688 23.339844 -51.164062 Z M 30.789062 0 C 32.675781 0 34.289062 -1.347656 33.480469 -3.589844 L 25.941406 -24.234375 C 30.339844 -25.402344 32.316406 -28.632812 32.316406 -34.558594 L 32.316406 -52.0625 C 32.316406 -59.601562 29.082031 -62.835938 21.542969 -62.835938 L 8.976562 -62.835938 C 6.464844 -62.835938 5.386719 -61.757812 5.386719 -59.246094 L 5.386719 -3.589844 C 5.386719 -1.078125 6.464844 0 8.976562 0 L 10.773438 0 C 13.285156 0 14.363281 -1.078125 14.363281 -3.589844 L 14.363281 -21.992188 C 14.363281 -22.980469 14.722656 -23.699219 15.4375 -23.699219 C 16.335938 -23.699219 16.875 -22.980469 17.234375 -22.082031 L 24.148438 -3.410156 C 24.953125 -1.078125 26.300781 0 29.171875 0 Z M 30.789062 0 "/></g></g></g><g fill="#000000" fill-opacity="1"><g transform="translate(228.813923, 190.279867)"><g><path d="M 10.773438 0 C 13.285156 0 14.363281 -1.078125 14.363281 -3.589844 L 14.363281 -59.246094 C 14.363281 -61.757812 13.285156 -62.835938 10.773438 -62.835938 L 8.976562 -62.835938 C 6.464844 -62.835938 5.386719 -61.757812 5.386719 -59.246094 L 5.386719 -3.589844 C 5.386719 -1.078125 6.464844 0 8.976562 0 Z M 10.773438 0 "/></g></g></g><g fill="#000000" fill-opacity="1"><g transform="translate(248.561993, 190.279867)"><g><path d="M 23.339844 -35.457031 C 23.339844 -32.945312 22.261719 -31.867188 19.75 -31.867188 L 16.15625 -31.867188 C 14.992188 -31.867188 14.453125 -32.316406 14.363281 -33.300781 L 14.363281 -52.960938 C 14.363281 -54.21875 14.902344 -54.757812 16.15625 -54.757812 L 19.75 -54.757812 C 22.261719 -54.757812 23.339844 -53.679688 23.339844 -51.164062 Z M 10.773438 0 C 13.285156 0 14.363281 -1.078125 14.363281 -3.589844 L 14.363281 -21.992188 C 14.363281 -23.25 14.902344 -23.789062 16.15625 -23.789062 L 21.542969 -23.789062 C 29.082031 -23.789062 32.316406 -27.019531 32.316406 -34.558594 L 32.316406 -52.0625 C 32.316406 -59.601562 29.082031 -62.835938 21.542969 -62.835938 L 8.976562 -62.835938 C 6.464844 -62.835938 5.386719 -61.757812 5.386719 -59.246094 L 5.386719 -3.589844 C 5.386719 -1.078125 6.464844 0 8.976562 0 Z M 10.773438 0 "/></g></g></g><g fill="#000000" fill-opacity="1"><g transform="translate(283.569952, 190.279867)"><g><path d="M 21.542969 0 C 29.082031 0 32.316406 -3.230469 32.316406 -10.773438 L 32.316406 -59.246094 C 32.316406 -61.757812 31.238281 -62.835938 28.722656 -62.835938 L 26.929688 -62.835938 C 24.414062 -62.835938 23.339844 -61.757812 23.339844 -59.246094 L 23.339844 -11.667969 C 23.339844 -9.15625 22.261719 -8.078125 19.75 -8.078125 L 17.953125 -8.078125 C 15.4375 -8.078125 14.363281 -9.15625 14.363281 -11.667969 L 14.363281 -59.246094 C 14.363281 -61.757812 13.285156 -62.835938 10.773438 -62.835938 L 8.976562 -62.835938 C 6.464844 -62.835938 5.386719 -61.757812 5.386719 -59.246094 L 5.386719 -10.773438 C 5.386719 -3.230469 8.617188 0 16.15625 0 Z M 21.542969 0 "/></g></g></g><g fill="#000000" fill-opacity="1"><g transform="translate(321.270819, 190.279867)"><g><path d="M 31.417969 0 C 33.929688 0 35.007812 -1.078125 35.007812 -3.589844 L 35.007812 -59.246094 C 35.007812 -61.757812 33.929688 -62.835938 31.417969 -62.835938 L 29.621094 -62.835938 C 27.109375 -62.835938 26.03125 -61.757812 26.03125 -59.246094 L 26.03125 -50.269531 C 26.03125 -42.726562 26.210938 -36.265625 26.660156 -28.722656 L 26.929688 -24.683594 C 26.929688 -23.429688 26.839844 -23.429688 26.480469 -24.59375 L 15.261719 -59.335938 C 14.632812 -61.757812 13.285156 -62.835938 10.773438 -62.835938 L 8.976562 -62.835938 C 6.464844 -62.835938 5.386719 -61.757812 5.386719 -59.246094 L 5.386719 -3.589844 C 5.386719 -1.078125 6.464844 0 8.976562 0 L 10.773438 0 C 13.285156 0 14.363281 -1.078125 14.363281 -3.589844 L 14.363281 -12.566406 C 14.363281 -20.105469 14.183594 -26.570312 13.734375 -34.109375 L 13.464844 -38.148438 C 13.464844 -39.40625 13.554688 -39.40625 13.914062 -38.238281 L 25.132812 -3.5 C 25.761719 -1.078125 27.109375 0 29.621094 0 Z M 31.417969 0 "/></g></g></g><g fill="#000000" fill-opacity="1"><g transform="translate(361.66462, 190.279867)"><g><path d="M 25.222656 -33.660156 C 24.863281 -34.828125 24.863281 -35.90625 25.222656 -37.074219 L 32.765625 -59.246094 C 33.570312 -61.578125 31.957031 -62.835938 30.070312 -62.835938 L 28.277344 -62.835938 C 25.671875 -62.835938 24.414062 -61.578125 23.699219 -59.421875 L 17.234375 -40.753906 C 16.875 -39.765625 16.335938 -39.046875 15.527344 -39.046875 C 14.722656 -39.046875 14.363281 -39.765625 14.363281 -40.84375 L 14.363281 -59.246094 C 14.363281 -61.757812 13.285156 -62.835938 10.773438 -62.835938 L 8.976562 -62.835938 C 6.464844 -62.835938 5.386719 -61.757812 5.386719 -59.246094 L 5.386719 -3.589844 C 5.386719 -1.078125 6.464844 0 8.976562 0 L 10.773438 0 C 13.285156 0 14.363281 -1.078125 14.363281 -3.589844 L 14.363281 -29.171875 C 14.363281 -30.25 14.722656 -30.96875 15.707031 -30.96875 C 16.695312 -30.96875 17.234375 -30.25 17.59375 -29.261719 L 26.390625 -3.410156 C 27.109375 -1.078125 28.457031 0 30.96875 0 L 32.765625 0 C 34.648438 0 36.265625 -1.257812 35.457031 -3.589844 Z M 25.222656 -33.660156 "/></g></g></g><g fill="#000000" fill-opacity="1"><g transform="translate(398.288348, 190.279867)"><g><path d="M 15.261719 0 C 17.773438 0 18.851562 -1.078125 18.851562 -3.589844 L 18.851562 -52.960938 C 18.851562 -54.21875 19.390625 -54.757812 20.644531 -54.757812 L 26.03125 -54.757812 C 27.289062 -54.757812 27.828125 -55.292969 27.828125 -56.550781 L 27.828125 -61.039062 C 27.828125 -62.296875 27.289062 -62.835938 26.03125 -62.835938 L 2.691406 -62.835938 C 1.4375 -62.835938 0.898438 -62.296875 0.898438 -61.039062 L 0.898438 -56.550781 C 0.898438 -55.292969 1.4375 -54.757812 2.691406 -54.757812 L 8.078125 -54.757812 C 9.335938 -54.757812 9.875 -54.21875 9.875 -52.960938 L 9.875 -3.589844 C 9.875 -1.078125 10.953125 0 13.464844 0 Z M 15.261719 0 "/></g></g></g><g fill="#000000" fill-opacity="1"><g transform="translate(427.012828, 190.279867)"><g><path d="M 17.054688 -7.179688 C 17.054688 -9.695312 15.976562 -10.773438 13.464844 -10.773438 L 8.976562 -10.773438 C 6.464844 -10.773438 5.386719 -9.695312 5.386719 -7.179688 L 5.386719 -3.589844 C 5.386719 -1.078125 6.464844 0 8.976562 0 L 13.464844 0 C 15.976562 0 17.054688 -1.078125 17.054688 -3.589844 Z M 17.054688 -7.179688 "/></g></g></g><g clip-path="url(#e9bd58fb34)"><path fill="#fbc646" d="M 453.898438 37.980469 L 502.433594 37.980469 L 481.894531 75.992188 L 507.097656 75.992188 L 446.117188 167.472656 L 462.296875 100.097656 L 431.496094 100.097656 L 453.898438 37.980469 " fill-opacity="1" fill-rule="nonzero"/></g></svg>