<svg width="45" height="45" viewBox="0 0 45 45" fill="none" xmlns="http://www.w3.org/2000/svg">
<path d="M22.5 4.21875C18.8843 4.21875 15.3498 5.29093 12.3435 7.2997C9.33715 9.30847 6.994 12.1636 5.61034 15.5041C4.22667 18.8445 3.86464 22.5203 4.57003 26.0665C5.27541 29.6127 7.01653 32.8701 9.57321 35.4268C12.1299 37.9835 15.3873 39.7246 18.9335 40.43C22.4797 41.1354 26.1555 40.7733 29.4959 39.3897C32.8364 38.006 35.6915 35.6629 37.7003 32.6565C39.7091 29.6502 40.7813 26.1157 40.7813 22.5C40.7761 17.6531 38.8484 13.0061 35.4212 9.57886C31.9939 6.15157 27.3469 4.22387 22.5 4.21875ZM23.9063 37.9037V26.7188H28.125C28.498 26.7188 28.8557 26.5706 29.1194 26.3069C29.3831 26.0431 29.5313 25.6855 29.5313 25.3125C29.5313 24.9395 29.3831 24.5819 29.1194 24.3181C28.8557 24.0544 28.498 23.9062 28.125 23.9062H23.9063V19.6875C23.9063 18.9416 24.2026 18.2262 24.73 17.6988C25.2575 17.1713 25.9728 16.875 26.7188 16.875H29.5313C29.9042 16.875 30.2619 16.7268 30.5256 16.4631C30.7894 16.1994 30.9375 15.8417 30.9375 15.4688C30.9375 15.0958 30.7894 14.7381 30.5256 14.4744C30.2619 14.2107 29.9042 14.0625 29.5313 14.0625H26.7188C25.2269 14.0625 23.7962 14.6551 22.7413 15.71C21.6864 16.7649 21.0938 18.1957 21.0938 19.6875V23.9062H16.875C16.502 23.9062 16.1444 24.0544 15.8806 24.3181C15.6169 24.5819 15.4688 24.9395 15.4688 25.3125C15.4688 25.6855 15.6169 26.0431 15.8806 26.3069C16.1444 26.5706 16.502 26.7188 16.875 26.7188H21.0938V37.9037C17.1295 37.5418 13.4574 35.6656 10.8412 32.6654C8.22501 29.6651 6.86615 25.7717 7.04728 21.7952C7.22841 17.8186 8.93558 14.0649 11.8137 11.3149C14.6918 8.56487 18.5193 7.03026 22.5 7.03026C26.4807 7.03026 30.3082 8.56487 33.1863 11.3149C36.0644 14.0649 37.7716 17.8186 37.9527 21.7952C38.1339 25.7717 36.775 29.6651 34.1588 32.6654C31.5426 35.6656 27.8705 37.5418 23.9063 37.9037Z" fill="black"/>
</svg>
