<svg width="35" height="35" viewBox="0 0 35 35" fill="none" xmlns="http://www.w3.org/2000/svg">
<path d="M17.5 17.4998C18.3021 17.4998 18.989 17.214 19.5607 16.6423C20.1323 16.0707 20.4177 15.3843 20.4167 14.5832C20.4167 13.7811 20.1309 13.0942 19.5592 12.5225C18.9875 11.9509 18.3012 11.6655 17.5 11.6665C16.698 11.6665 16.0111 11.9523 15.4394 12.524C14.8677 13.0957 14.5824 13.7821 14.5834 14.5832C14.5834 15.3853 14.8692 16.0721 15.4409 16.6438C16.0125 17.2155 16.6989 17.5008 17.5 17.4998ZM17.5 28.2186C20.4653 25.4964 22.665 23.023 24.099 20.7986C25.533 18.5741 26.25 16.5996 26.25 14.8748C26.25 12.2255 25.4052 10.0565 23.7155 8.36775C22.0257 6.679 19.9539 5.83414 17.5 5.83317C15.0452 5.83317 12.9729 6.67803 11.2832 8.36775C9.59344 10.0575 8.74907 12.2265 8.75004 14.8748C8.75004 16.6005 9.46705 18.5756 10.9011 20.8C12.3351 23.0245 14.5348 25.4973 17.5 28.2186ZM17.5 32.0832C13.5868 28.7533 10.6643 25.6607 8.73254 22.8053C6.80074 19.9498 5.83435 17.3064 5.83337 14.8748C5.83337 11.229 7.00636 8.32449 9.35233 6.1613C11.6983 3.9981 14.4142 2.9165 17.5 2.9165C20.5868 2.9165 23.3032 3.9981 25.6492 6.1613C27.9952 8.32449 29.1677 11.229 29.1667 14.8748C29.1667 17.3054 28.2003 19.9489 26.2675 22.8053C24.3348 25.6616 21.4123 28.7543 17.5 32.0832Z" fill="black"/>
</svg>
