<svg width="35" height="35" viewBox="0 0 35 35" fill="none" xmlns="http://www.w3.org/2000/svg">
<path d="M5.91667 29.3333C5.11459 29.3333 4.42771 29.0475 3.85604 28.4758C3.28438 27.9042 2.99903 27.2178 3 26.4167V8.91667C3 8.11459 3.28584 7.42771 3.8575 6.85604C4.42917 6.28438 5.11556 5.99903 5.91667 6H29.25C30.0521 6 30.739 6.28584 31.3106 6.8575C31.8823 7.42917 32.1676 8.11556 32.1667 8.91667V26.4167C32.1667 27.2188 31.8808 27.9056 31.3092 28.4773C30.7375 29.049 30.0511 29.3343 29.25 29.3333H5.91667ZM17.5833 19.125L5.91667 11.8333V26.4167H29.25V11.8333L17.5833 19.125ZM17.5833 16.2083L29.25 8.91667H5.91667L17.5833 16.2083ZM5.91667 11.8333V8.91667V26.4167V11.8333Z" fill="black"/>
</svg>
