<svg width="35" height="35" viewBox="0 0 35 35" fill="none" xmlns="http://www.w3.org/2000/svg">
<g clip-path="url(#clip0_9_65)">
<path d="M6.08134 2.54189C5.98309 2.39654 5.85907 2.2769 5.71752 2.19091C5.57597 2.10492 5.42013 2.05454 5.26035 2.04314C5.10057 2.03173 4.94051 2.05956 4.7908 2.12476C4.64109 2.18996 4.50515 2.29105 4.39203 2.42131L2.67109 4.40231C1.86721 5.3287 1.57095 6.6398 1.92213 7.79012C3.37967 12.5514 5.75063 16.8742 8.85914 20.4379C11.958 24.0127 15.717 26.7393 19.8572 28.4156C20.8574 28.8194 21.9975 28.4787 22.8031 27.5542L24.524 25.5752C24.6373 25.4451 24.7252 25.2887 24.7819 25.1166C24.8386 24.9444 24.8628 24.7603 24.8528 24.5766C24.8429 24.3928 24.7991 24.2136 24.7243 24.0508C24.6496 23.888 24.5455 23.7454 24.4191 23.6324L20.5795 20.1987C20.4445 20.0782 20.2874 19.9946 20.1202 19.9542C19.953 19.9137 19.7799 19.9175 19.6142 19.9652L15.9692 21.0121C15.4827 21.152 14.973 21.1446 14.4897 20.9906C14.0064 20.8366 13.566 20.5414 13.2114 20.1336L9.12377 15.4309C8.76888 15.0233 8.51184 14.5169 8.37767 13.9611C8.2435 13.4053 8.23678 12.819 8.35817 12.2593L9.27024 8.06765C9.31169 7.87701 9.31495 7.67803 9.27978 7.48572C9.24461 7.29341 9.17191 7.11281 9.06719 6.95752L6.08134 2.54189ZM3.13544 0.978138C3.42669 0.643089 3.7766 0.383129 4.16191 0.21552C4.54723 0.0479116 4.95914 -0.0235105 5.3703 0.00599647C5.78146 0.0355035 6.18246 0.165264 6.54666 0.386663C6.91087 0.608061 7.22995 0.916031 7.48272 1.29012L10.4686 5.70384C11.0161 6.51347 11.2092 7.5681 10.9928 8.56338L10.0824 12.7551C10.0354 12.9722 10.0379 13.1996 10.0898 13.4152C10.1417 13.6309 10.2412 13.8274 10.3787 13.9858L14.468 18.6885C14.6059 18.8469 14.7771 18.9615 14.9649 19.0213C15.1527 19.081 15.3508 19.0837 15.5398 19.0292L19.1831 17.9823C19.6102 17.8594 20.056 17.8499 20.4868 17.9544C20.9175 18.0588 21.322 18.2745 21.6696 18.5852L25.5076 22.0189C26.8874 23.2535 27.0139 25.5981 25.7789 27.0164L24.058 28.9955C22.8264 30.4119 20.9856 31.0339 19.2697 30.3391C14.8777 28.562 10.8901 25.6705 7.60256 21.8792C4.30596 18.099 1.79166 13.5139 0.246131 8.46385C-0.356364 6.49242 0.18455 4.3736 1.41617 2.95723L3.13711 0.978138H3.13544Z" fill="black"/>
</g>
<defs>
<clipPath id="clip0_9_65">
<rect width="35" height="35" fill="white"/>
</clipPath>
</defs>
</svg>
