<svg width="42" height="42" viewBox="0 0 42 42" fill="none" xmlns="http://www.w3.org/2000/svg">
<path d="M17.9167 30.4167L32.6042 15.7292L29.6875 12.8125L17.9167 24.5833L11.9792 18.6458L9.0625 21.5625L17.9167 30.4167ZM20.8333 41.6667C17.9514 41.6667 15.2431 41.1194 12.7083 40.025C10.1736 38.9306 7.96875 37.4465 6.09375 35.5729C4.21875 33.6979 2.73472 31.4931 1.64167 28.9583C0.548611 26.4236 0.00138889 23.7153 0 20.8333C0 17.9514 0.547222 15.2431 1.64167 12.7083C2.73611 10.1736 4.22014 7.96875 6.09375 6.09375C7.96875 4.21875 10.1736 2.73472 12.7083 1.64167C15.2431 0.548611 17.9514 0.00138889 20.8333 0C23.7153 0 26.4236 0.547222 28.9583 1.64167C31.4931 2.73611 33.6979 4.22014 35.5729 6.09375C37.4479 7.96875 38.9326 10.1736 40.0271 12.7083C41.1215 15.2431 41.6681 17.9514 41.6667 20.8333C41.6667 23.7153 41.1194 26.4236 40.025 28.9583C38.9306 31.4931 37.4465 33.6979 35.5729 35.5729C33.6979 37.4479 31.4931 38.9326 28.9583 40.0271C26.4236 41.1215 23.7153 41.6681 20.8333 41.6667ZM20.8333 37.5C25.4861 37.5 29.4271 35.8854 32.6562 32.6562C35.8854 29.4271 37.5 25.4861 37.5 20.8333C37.5 16.1806 35.8854 12.2396 32.6562 9.01042C29.4271 5.78125 25.4861 4.16667 20.8333 4.16667C16.1806 4.16667 12.2396 5.78125 9.01042 9.01042C5.78125 12.2396 4.16667 16.1806 4.16667 20.8333C4.16667 25.4861 5.78125 29.4271 9.01042 32.6562C12.2396 35.8854 16.1806 37.5 20.8333 37.5Z" fill="black"/>
</svg>
